***************************************************************

[IMG]http://www.hotimg.org/images/67363952943939111394.png[/IMG]

***************************************************************

[img]http://www.imagezon3.com/images/OXbEK.jpg[/img]

***************************************************************

FILM TITLE: Dream House (2011)

***************************************************************

Genre:  Drama | Mystery | Thriller    

Rated PG-13 for violence, terror, some sexuality and brief strong language

Release:  21 October 2011 (Poland) 

Director: Jim Sheridan

Writer: David Loucka (screenplay)

Stars:  Daniel Craig, Rachel Weisz and Naomi Watts

Country: USA

Language:  English

Plot:
Soon after moving into their seemingly idyllic new home, 
a family learns of a brutal crime committed against former 
residents of the dwelling.

IMDB Rating: 5.7/10 from 11,187 users   Metascore: 35/100
 
http://www.imdb.com/title/tt1462041/

****************************************************************

[url=http://www.imagezon3.com/images/5ciTr.png][img]http://www.imagezon3.com/images/thumbs/5ciTr.png[/img][/url]
[url=http://www.imagezon3.com/images/9e7u6.png][img]http://www.imagezon3.com/images/thumbs/9e7u6.png[/img][/url]
[url=http://www.imagezon3.com/images/us57Q.png][img]http://www.imagezon3.com/images/thumbs/us57Q.png[/img][/url]
[url=http://www.imagezon3.com/images/fAMQy.png][img]http://www.imagezon3.com/images/thumbs/fAMQy.png[/img][/url]

****************************************************************

General
Complete name                    : Dream House 2011 720p BDRip XviD ac3 (avi) [GREYSHADOW].avi
Format                           : AVI
Format/Info                      : Audio Video Interleave
Format profile                   : OpenDML
File size                        : 3.60 GiB
Duration                         : 1h 31mn
Overall bit rate                 : 5609 Kbps
Writing library                  : VirtualDub build 32842/release

Video
ID                               : 0
Format                           : MPEG-4 Visual
Format profile                   : Simple@L5
Format settings, BVOP            : No
Format settings, QPel            : No
Format settings, GMC             : No warppoints
Format settings, Matrix          : Default (H.263)
Codec ID                         : XVID
Codec ID/Hint                    : XviD
Duration                         : 1h 31mn
Bit rate                         : 4960 Kbps
Width                            : 1280 pixels
Height                           : 528 pixels
Display aspect ratio             : 2.40:1
Frame rate                       : 23.976 fps
Color space                      : YUV
Chroma subsampling               : 4:2:0
Bit depth                        : 8 bits
Scan type                        : Progressive
Compression mode                 : Lossy
Bits/(Pixel*Frame)               : 0.306
Stream size                      : 3.19 GiB (88%)
Writing library                  : XviD 64

Audio
ID                               : 1
Format                           : AC-3
Format/Info                      : Audio Coding 3
Mode extension                   : CM (complete main)
Codec ID                         : 2000
Duration                         : 1h 31mn
Bit rate mode                    : Constant
Bit rate                         : 640 Kbps
Channel(s)                       : 6 channels
Channel positions                : Front: L C R, Side: L R, LFE
Sampling rate                    : 48.0 KHz
Bit depth                        : 16 bits
Compression mode                 : Lossy
Stream size                      : 421 MiB (11%)
Alignment                        : Aligned on interleaves
Interleave, duration             : 42 ms (1.00 video frame)
Interleave, preload duration     : 512 ms

****************************************************************

Video Source: Dream.House.2011.BluRay.1080p.VC-1.DTS-HD.MA5.1-CHDBits (26.9GB)

Thanks: chdbits.org

****************************************************************

I provide a small sample, so please download this to check your 
compatibility first if you are unsure.

****************************************************************